<svg xmlns="http://www.w3.org/2000/svg" width="60.263" height="67.221" viewBox="0 0 60.263 67.221">
  <g id="_1001503340" data-name="1001503340" transform="translate(-131.4 -112.2)">
    <rect id="Rectangle_138867" data-name="Rectangle 138867" width="8.027" height="8.027" transform="translate(140.604 142.676)" fill="#fff"/>
    <rect id="Rectangle_138868" data-name="Rectangle 138868" width="8.027" height="8.027" transform="translate(169.124 142.676)" fill="#fff"/>
    <rect id="Rectangle_138869" data-name="Rectangle 138869" width="8.027" height="8.027" transform="translate(154.864 142.676)" fill="#fff"/>
    <rect id="Rectangle_138870" data-name="Rectangle 138870" width="8.027" height="8.027" transform="translate(140.604 157.479)" fill="#fff"/>
    <rect id="Rectangle_138871" data-name="Rectangle 138871" width="8.027" height="8.027" transform="translate(154.864 157.479)" fill="#fff"/>
    <path id="Path_5801" data-name="Path 5801" d="M186.373,156.573V122.129a3.518,3.518,0,0,0-3.515-3.515h-6.523v-4.059a2.355,2.355,0,1,0-4.711,0v4.059H161.242v-4.059a2.355,2.355,0,1,0-4.711,0v4.059H146.149v-4.059a2.355,2.355,0,0,0-4.711,0v4.059h-6.523a3.518,3.518,0,0,0-3.515,3.515V172.88a3.518,3.518,0,0,0,3.515,3.515H170.9a12.586,12.586,0,1,0,15.474-19.822ZM141.42,123.452v1.522a2.355,2.355,0,1,0,4.711,0v-1.522a3.728,3.728,0,1,1-6.088,2.881A3.766,3.766,0,0,1,141.42,123.452Zm15.111.054v1.468a2.355,2.355,0,1,0,4.711,0V123.4a3.727,3.727,0,1,1-6.015,2.935A3.706,3.706,0,0,1,156.531,123.506Zm15.093-.054v1.522a2.355,2.355,0,1,0,4.711,0v-1.522a3.733,3.733,0,1,1-4.711,0ZM134.535,172.88V137.82h48.7v17.122a12.314,12.314,0,0,0-4.185-.725,12.581,12.581,0,0,0-10.817,19.025H134.9A.363.363,0,0,1,134.535,172.88Zm44.518,3.388a9.458,9.458,0,1,1,9.458-9.458A9.465,9.465,0,0,1,179.053,176.268Z" fill="#fff"/>
    <path id="Path_5802" data-name="Path 5802" d="M396.732,387.262l-5.073-2.645v-5.037a.779.779,0,0,0-1.558,0v5.508a.773.773,0,0,0,.417.689l5.49,2.863a.8.8,0,0,0,1.069-.326A.774.774,0,0,0,396.732,387.262Z" transform="translate(-211.826 -218.295)" fill="#fff"/>
  </g>
</svg>
