<svg xmlns="http://www.w3.org/2000/svg" width="160" height="160" viewBox="0 0 160 160">
  <g id="Group_67239" data-name="Group 67239" transform="translate(-437 -437)">
    <path id="Icon_map-gym" data-name="Icon map-gym" d="M30.275,77.853a1.78,1.78,0,0,1-.088,2.5l-3.84,3.591a1.766,1.766,0,0,1-2.495-.09L1.489,59.756a1.78,1.78,0,0,1,.09-2.5l3.845-3.585a1.764,1.764,0,0,1,2.495.09ZM58.81,32.5a1.78,1.78,0,0,1-.09,2.5L34.552,57.585a1.766,1.766,0,0,1-2.495-.09l-5.769-6.225a1.78,1.78,0,0,1,.09-2.5L50.541,26.189a1.763,1.763,0,0,1,2.493.09L58.81,32.5ZM38.5,70.167a1.781,1.781,0,0,1-.09,2.5L34.562,76.26a1.764,1.764,0,0,1-2.495-.09L9.717,52.069a1.78,1.78,0,0,1,.088-2.5l3.838-3.587a1.766,1.766,0,0,1,2.495.09Zm37.239-36.8a1.78,1.78,0,0,1-.092,2.5L71.8,39.461a1.768,1.768,0,0,1-2.5-.088l-22.354-24.1a1.779,1.779,0,0,1,.088-2.5l3.854-3.6a1.763,1.763,0,0,1,2.493.09l22.351,24.1ZM83.948,25.7a1.784,1.784,0,0,1-.09,2.505l-3.837,3.587a1.763,1.763,0,0,1-2.493-.088L55.177,7.593a1.784,1.784,0,0,1,.088-2.505l3.84-3.594a1.759,1.759,0,0,1,2.491.088Z" transform="translate(473.982 473.98)" fill="#fff"/>
    <g id="Ellipse_409" data-name="Ellipse 409" transform="translate(437 437)" fill="none" stroke="#fff" stroke-width="5">
      <circle cx="80" cy="80" r="80" stroke="none"/>
      <circle cx="80" cy="80" r="77.5" fill="none"/>
    </g>
    <line id="Line_513" data-name="Line 513" x2="108" y2="111" transform="translate(463.5 459.5)" fill="none" stroke="#fff" stroke-width="5"/>
  </g>
</svg>
