<svg xmlns="http://www.w3.org/2000/svg" width="160" height="160" viewBox="0 0 160 160">
  <g id="Group_67240" data-name="Group 67240" transform="translate(-1062 -437)">
    <g id="Ellipse_410" data-name="Ellipse 410" transform="translate(1062 437)" fill="none" stroke="#fff" stroke-width="5">
      <circle cx="80" cy="80" r="80" stroke="none"/>
      <circle cx="80" cy="80" r="77.5" fill="none"/>
    </g>
    <path id="Icon_awesome-photo-video" data-name="Icon awesome-photo-video" d="M85.5,0h-63A4.5,4.5,0,0,0,18,4.5V18H40.5V9h27V54h18A4.5,4.5,0,0,0,90,49.5V4.5A4.5,4.5,0,0,0,85.5,0ZM32.625,14.484a1.266,1.266,0,0,1-1.266,1.266H27.14a1.266,1.266,0,0,1-1.266-1.266V10.266A1.266,1.266,0,0,1,27.14,9h4.219a1.266,1.266,0,0,1,1.266,1.266Zm49.5,29.25A1.266,1.266,0,0,1,80.859,45H76.64a1.266,1.266,0,0,1-1.266-1.266V39.515A1.266,1.266,0,0,1,76.64,38.25h4.219a1.266,1.266,0,0,1,1.266,1.266Zm0-14.625a1.266,1.266,0,0,1-1.266,1.266H76.64a1.266,1.266,0,0,1-1.266-1.266V24.89a1.266,1.266,0,0,1,1.266-1.266h4.219a1.266,1.266,0,0,1,1.266,1.266Zm0-14.625a1.266,1.266,0,0,1-1.266,1.266H76.64a1.266,1.266,0,0,1-1.266-1.266V10.266A1.266,1.266,0,0,1,76.64,9h4.219a1.266,1.266,0,0,1,1.266,1.266ZM58.5,22.5H4.5A4.5,4.5,0,0,0,0,27V67.5A4.5,4.5,0,0,0,4.5,72h54A4.5,4.5,0,0,0,63,67.5V27A4.5,4.5,0,0,0,58.5,22.5Zm-45,9A4.5,4.5,0,1,1,9,36a4.5,4.5,0,0,1,4.5-4.5ZM54,63H9V58.5l9-9L22.5,54l18-18L54,49.5Z" transform="translate(1097 481)" fill="#fff"/>
  </g>
</svg>
