<svg xmlns="http://www.w3.org/2000/svg" width="160" height="160" viewBox="0 0 160 160">
  <g id="Group_67279" data-name="Group 67279" transform="translate(-1469 -437)">
    <g id="Ellipse_410" data-name="Ellipse 410" transform="translate(1469 437)" fill="none" stroke="#fff" stroke-width="5">
      <circle cx="80" cy="80" r="80" stroke="none"/>
      <circle cx="80" cy="80" r="77.5" fill="none"/>
    </g>
    <g id="Group_67259" data-name="Group 67259" transform="translate(198.401 -66.317)">
      <g id="Group_67258" data-name="Group 67258" transform="translate(1308.599 539.317)">
        <path id="Path_9217" data-name="Path 9217" d="M26.377,72.691H14.314A6.05,6.05,0,0,1,8.283,66.66V45.549a6.05,6.05,0,0,1-6.032-6.032V21.423A8.884,8.884,0,0,1,11.3,12.376H29.393a8.884,8.884,0,0,1,9.047,9.047V39.518a6.05,6.05,0,0,1-6.032,6.032V66.66A6.05,6.05,0,0,1,26.377,72.691ZM11.3,18.408a2.85,2.85,0,0,0-3.016,3.016V39.518h6.032V66.66H26.377V39.518h6.032V21.423a2.85,2.85,0,0,0-3.016-3.016Z" transform="translate(-2.249 14.766)" fill="#fff"/>
        <path id="Path_9218" data-name="Path 9218" d="M16.563,26.376A12.063,12.063,0,1,1,28.626,14.313,12.063,12.063,0,0,1,16.563,26.376Zm0-18.095a6.032,6.032,0,1,0,6.032,6.032,6.032,6.032,0,0,0-6.032-6.032Z" transform="translate(1.534 -2.25)" fill="#fff"/>
      </g>
      <path id="Path_9219" data-name="Path 9219" d="M56.5,7.166a12.7,12.7,0,0,0-17.39-.676,12.7,12.7,0,0,0-17.39.676,13.025,13.025,0,0,0,0,18.226L39.1,43,39.109,43l.005,0L56.5,25.392a13.025,13.025,0,0,0,0-18.226ZM52.2,21.156,39.115,34.418l-.005-.008-.005.005L26.014,21.154a6.959,6.959,0,0,1,0-9.752,6.828,6.828,0,0,1,9.517,0l3.563,3.64.016-.016.016.016,3.557-3.64a6.828,6.828,0,0,1,9.522,0,6.959,6.959,0,0,1,0,9.752Z" transform="translate(1332.822 538.955)" fill="#fff"/>
    </g>
  </g>
</svg>
